<svg xmlns="http://www.w3.org/2000/svg" width="180" height="180" viewBox="0 0 140 140" fill="none">
  <circle cx="90" cy="90" r="90" fill="#B3E5FC"></circle>
  <path d="M68.4769 57.31H51.9968C51.7668 57.31 51.4769 57.38 51.3269 57.31C51.0069 57.08 50.5769 56.77 50.5469 56.45C50.5169 56.13 50.8369 55.72 51.1169 55.45C51.3969 55.18 51.6269 55.33 51.8969 55.33H84.9968C85.244 55.3232 85.4907 55.357 85.7269 55.43C85.946 55.4974 86.1316 55.6451 86.2465 55.8435C86.3615 56.0419 86.3973 56.2763 86.3469 56.5C86.3287 56.7167 86.2344 56.92 86.0806 57.0738C85.9269 57.2275 85.7235 57.3219 85.5068 57.34C85.2804 57.3548 85.0533 57.3548 84.8269 57.34L68.4769 57.31Z" fill="black"></path>
  <path d="M68.397 60.22H84.8169C85.088 60.2064 85.3597 60.2232 85.6269 60.27C85.8414 60.3088 86.0341 60.4249 86.1687 60.5963C86.3032 60.7677 86.3703 60.9825 86.357 61.2C86.3859 61.4314 86.3238 61.6649 86.1839 61.8514C86.044 62.038 85.8372 62.1629 85.607 62.2C85.3633 62.2472 85.1148 62.264 84.867 62.25H51.977C51.7259 62.2636 51.4741 62.2468 51.227 62.2C51.1124 62.1859 51.0021 62.1482 50.9029 62.089C50.8038 62.0299 50.7181 61.9508 50.6513 61.8567C50.5845 61.7626 50.538 61.6556 50.5149 61.5425C50.4918 61.4294 50.4925 61.3128 50.517 61.2C50.6621 60.8266 50.9209 60.5082 51.2569 60.29C51.4369 60.16 51.7869 60.23 52.0569 60.23L68.397 60.22Z" fill="black"></path>
  <path d="M68.5168 47.28C68.5168 46.08 68.5168 44.88 68.5168 43.69C68.5168 42.89 68.8769 42.53 69.6769 42.51C70.4769 42.49 71.0769 42.51 71.7769 42.51C72.2187 42.5175 72.6521 42.6321 73.0399 42.844C73.4277 43.0559 73.7583 43.3588 74.0032 43.7267C74.2481 44.0945 74.4 44.5163 74.4459 44.9558C74.4919 45.3954 74.4304 45.8395 74.2668 46.25C74.1932 46.3814 74.1659 46.5338 74.1895 46.6826C74.2131 46.8313 74.2862 46.9678 74.3969 47.07C74.7961 47.4935 75.056 48.0291 75.1418 48.6047C75.2277 49.1804 75.1352 49.7685 74.8768 50.29C74.6577 50.8288 74.2828 51.2898 73.7999 51.6141C73.3171 51.9383 72.7485 52.111 72.1669 52.11C71.3269 52.11 70.4869 52.11 69.6569 52.11C68.8269 52.11 68.5168 51.73 68.5068 50.93C68.5068 49.72 68.5168 48.5 68.5168 47.28ZM70.5869 50.1H71.4968C71.7168 50.1 71.9469 50.1 72.1669 50.1C72.4274 50.0856 72.6735 49.9757 72.858 49.7911C73.0425 49.6066 73.1525 49.3605 73.1669 49.1C73.1669 48.8348 73.0615 48.5804 72.874 48.3929C72.6864 48.2054 72.4321 48.1 72.1669 48.1C71.6569 48.1 71.1669 48.1 70.6069 48.1L70.5869 50.1ZM70.5869 46C71.2069 46 71.8669 46.25 72.2969 45.66C72.3608 45.5382 72.3942 45.4026 72.3942 45.265C72.3942 45.1274 72.3608 44.9918 72.2969 44.87C71.8469 44.29 71.1969 44.61 70.5969 44.57L70.5869 46Z" fill="black"></path>
  <path d="M57.3969 47.29C57.4049 46.3399 57.6947 45.4135 58.2296 44.6282C58.7645 43.8429 59.5205 43.234 60.4017 42.8786C61.283 42.5233 62.2498 42.4375 63.1799 42.6321C64.1099 42.8268 64.9613 43.293 65.6261 43.9719C66.2909 44.6507 66.7393 45.5116 66.9145 46.4455C67.0896 47.3794 66.9837 48.3443 66.61 49.2179C66.2364 50.0916 65.6118 50.8346 64.8155 51.353C64.0192 51.8715 63.087 52.1419 62.1369 52.13C60.8673 52.1142 59.6558 51.596 58.7674 50.6889C57.879 49.7818 57.3862 48.5596 57.3969 47.29ZM59.3969 47.29C59.3903 47.652 59.4552 48.0117 59.5879 48.3485C59.7207 48.6854 59.9186 48.9927 60.1704 49.2528C60.4222 49.513 60.7228 49.7208 61.0552 49.8645C61.3875 50.0082 61.7449 50.0848 62.1069 50.09C62.4707 50.094 62.8317 50.0262 63.1692 49.8906C63.5068 49.7551 63.8144 49.5543 64.0744 49.2999C64.3344 49.0455 64.5417 48.7423 64.6846 48.4078C64.8274 48.0732 64.903 47.7138 64.9069 47.35C64.9108 46.9862 64.8431 46.6253 64.7075 46.2877C64.5719 45.9501 64.3712 45.6425 64.1168 45.3825C63.8624 45.1225 63.5592 44.9152 63.2247 44.7723C62.8901 44.6295 62.5307 44.554 62.1669 44.55C61.4418 44.5552 60.7479 44.8456 60.2352 45.3583C59.7225 45.871 59.4322 46.5649 59.4269 47.29H59.3969Z" fill="black"></path>
  <path d="M55.557 46.7C55.557 47.7 55.557 48.6 55.557 49.55C55.5784 50.0958 55.4183 50.6334 55.1016 51.0785C54.785 51.5236 54.3297 51.8512 53.807 52.01C53.2863 52.1436 52.7377 52.1199 52.2305 51.9419C51.7232 51.7639 51.2801 51.4397 50.957 51.01C50.7884 50.8257 50.6948 50.5848 50.6948 50.335C50.6948 50.0851 50.7884 49.8443 50.957 49.66C51.1216 49.4886 51.3418 49.3814 51.5781 49.3576C51.8145 49.3338 52.0516 49.3949 52.247 49.53C52.567 49.71 52.907 49.85 53.247 50.01C53.3748 49.6229 53.4653 49.2244 53.517 48.82C53.517 47.22 53.517 45.61 53.517 44.01C53.5019 43.8069 53.5019 43.6031 53.517 43.4C53.5372 43.1489 53.6514 42.9146 53.8368 42.7441C54.0222 42.5735 54.2651 42.4792 54.517 42.48C54.7822 42.48 55.0366 42.5854 55.2241 42.7729C55.4117 42.9604 55.517 43.2148 55.517 43.48C55.517 44.55 55.517 45.61 55.517 46.67L55.557 46.7Z" fill="black"></path>
  <path d="M106.917 87.42C106.913 84.2836 105.775 81.2544 103.713 78.891C101.651 76.5277 98.8037 74.9895 95.6968 74.56C95.6968 74.16 95.6968 73.75 95.6968 73.35C95.6969 72.5152 95.3688 71.7139 94.7832 71.1189C94.1976 70.524 93.4015 70.1831 92.5668 70.17C92.3068 70.17 92.0468 70.17 91.7468 70.17V53.24C91.7575 52.9472 91.7273 52.6544 91.6568 52.37C91.6334 52.2628 91.5886 52.1615 91.5253 52.0719C91.4619 51.9823 91.3812 51.9064 91.2879 51.8486C91.1947 51.7908 91.0907 51.7522 90.9823 51.7353C90.8739 51.7184 90.7633 51.7234 90.6568 51.75C90.2979 51.9312 89.9992 52.2126 89.7969 52.56C89.6869 52.71 89.7969 53 89.7969 53.23V70.16C89.2669 70.16 88.7969 70.16 88.3669 70.16C87.6269 70.16 86.7168 70.37 86.2068 70.02C85.6968 69.67 85.6768 68.73 85.4368 68.02C85.2384 67.3377 84.82 66.7402 84.2466 66.3206C83.6733 65.901 82.9771 65.6828 82.2668 65.7H68.2668C67.5706 65.6862 66.8887 65.8992 66.3241 66.3069C65.7595 66.7145 65.3428 67.2948 65.1368 67.96C65.1368 68.11 65.0268 68.26 64.9568 68.43C64.9107 68.3708 64.8705 68.3071 64.8368 68.24C63.9968 66.24 63.1768 65.7 61.0168 65.7H47.1568V39.86C47.1568 39.75 47.1568 39.64 47.1568 39.52C47.1568 39.13 47.2968 38.95 47.7168 38.96C48.5368 38.96 49.3468 38.96 50.1568 38.96C63.0568 38.96 75.9502 38.96 88.8368 38.96C89.5168 38.96 89.7468 39.13 89.7168 39.83C89.7168 41.32 89.7168 42.83 89.7168 44.3C89.7168 45.53 89.7168 46.75 89.7168 47.97C89.7428 48.1774 89.8169 48.3758 89.9332 48.5495C90.0495 48.7231 90.2049 48.8671 90.3868 48.97C90.5747 48.9986 90.7665 48.9867 90.9494 48.9349C91.1322 48.8832 91.3018 48.7928 91.4468 48.67C91.6434 48.398 91.7356 48.0644 91.7068 47.73C91.7068 45.16 91.7068 42.58 91.7068 40C91.7886 39.3742 91.6588 38.739 91.3381 38.1954C91.0173 37.6519 90.5241 37.2311 89.9368 37H46.9368C46.3391 37.1871 45.8258 37.5776 45.4861 38.1037C45.1463 38.6298 45.0015 39.2583 45.0768 39.88C45.0768 48.23 45.0768 56.57 45.0768 64.88V65.65C41.9668 65.65 41.0768 67.49 41.0768 69.95C41.1668 76.32 41.0768 82.7 41.0768 89.08C41.0768 89.3 41.0768 89.53 41.0768 89.76C41.0768 90.0252 41.1822 90.2796 41.3697 90.4671C41.5573 90.6546 41.8116 90.76 42.0768 90.76C42.2143 90.7603 42.3503 90.7323 42.4764 90.6778C42.6026 90.6232 42.7161 90.5432 42.8099 90.4428C42.9038 90.3424 42.9758 90.2237 43.0218 90.0942C43.0677 89.9647 43.0864 89.8271 43.0768 89.69C43.0768 89.12 43.0768 88.56 43.0768 87.99V69.32C43.0768 68.25 43.4768 67.78 44.4368 67.78H61.2668C61.5734 67.7562 61.8782 67.8445 62.1246 68.0284C62.371 68.2123 62.5424 68.4793 62.6069 68.78C62.8269 69.52 63.0768 70.24 63.3168 70.97C63.6868 72.08 63.8568 72.2 65.0168 72.2H91.6868C91.9368 72.2 92.1869 72.2 92.4269 72.2C92.7135 72.1999 92.9888 72.3117 93.1943 72.5115C93.3997 72.7114 93.519 72.9835 93.5268 73.27C93.5268 73.66 93.5268 74.04 93.5268 74.43C90.079 74.43 86.7724 75.7996 84.3345 78.2376C81.8965 80.6756 80.5268 83.9822 80.5268 87.43C80.5268 90.8778 81.8965 94.1844 84.3345 96.6224C86.7724 99.0604 90.079 100.43 93.5268 100.43V102.65C93.5268 104.1 93.2169 104.4 91.7868 104.4H44.7869C43.3069 104.4 43.0068 104.1 43.0068 102.61C43.0068 100.01 43.0068 97.41 43.0068 94.81C43.0068 94.05 42.6168 93.62 42.0068 93.62C41.3968 93.62 41.0068 94.08 41.0068 94.88C41.0068 97.59 41.0068 100.31 41.0068 103.02C40.9768 103.48 41.0461 103.942 41.2099 104.373C41.3737 104.804 41.6283 105.195 41.9564 105.52C42.2845 105.844 42.6784 106.094 43.1116 106.253C43.5447 106.411 44.0069 106.475 44.4668 106.44H92.0968C92.5569 106.476 93.0192 106.412 93.4522 106.252C93.8852 106.093 94.2785 105.842 94.6053 105.516C94.932 105.19 95.1845 104.797 95.3453 104.365C95.5061 103.932 95.5714 103.47 95.5368 103.01V100.32C98.6796 99.9253 101.57 98.3967 103.666 96.0214C105.761 93.6461 106.917 90.5875 106.917 87.42ZM66.4468 70.11C66.6568 69.52 66.8069 68.96 67.0368 68.43C67.2668 67.9 67.8368 67.77 68.4068 67.77H81.8868C82.8868 67.77 83.1669 67.98 83.4769 68.9C83.6069 69.29 83.7269 69.67 83.8669 70.11H66.4468Z" fill="#0B91D1"></path>
  <path d="M93.927 97.93C99.7315 97.93 104.437 93.2245 104.437 87.42C104.437 81.6155 99.7315 76.91 93.927 76.91C88.1225 76.91 83.417 81.6155 83.417 87.42C83.417 93.2245 88.1225 97.93 93.927 97.93Z" fill="#EA1B47"></path>
  <path d="M92.417 89.52C93.417 88.52 94.347 87.52 95.287 86.64C96.387 85.53 97.487 84.42 98.597 83.33C98.698 83.196 98.8312 83.0895 98.9842 83.0205C99.1373 82.9515 99.3052 82.9221 99.4726 82.935C99.64 82.948 99.8014 83.0029 99.9419 83.0946C100.083 83.1864 100.198 83.312 100.277 83.46C100.38 83.6542 100.417 83.877 100.38 84.0939C100.344 84.3108 100.238 84.5098 100.077 84.66C97.777 86.98 95.4703 89.2867 93.157 91.58C93.0632 91.6847 92.9484 91.7685 92.82 91.8259C92.6916 91.8833 92.5526 91.9129 92.412 91.9129C92.2714 91.9129 92.1323 91.8833 92.004 91.8259C91.8756 91.7685 91.7608 91.6847 91.667 91.58C90.367 90.3 89.067 89 87.787 87.7C87.6869 87.6101 87.6059 87.501 87.549 87.3791C87.4921 87.2572 87.4603 87.1251 87.4557 86.9906C87.451 86.8562 87.4735 86.7222 87.5218 86.5966C87.5702 86.4711 87.6434 86.3566 87.737 86.26C87.8356 86.1595 87.9544 86.081 88.0854 86.0295C88.2165 85.9781 88.357 85.9549 88.4976 85.9615C88.6383 85.9681 88.776 86.0044 88.9017 86.0679C89.0273 86.1314 89.1382 86.2207 89.227 86.33C90.277 87.34 91.307 88.4 92.417 89.52Z" fill="white"></path>
</svg>